<mxfile host="app.diagrams.net" agent="Mozilla/5.0 (Macintosh; Intel Mac OS X 10_15_7) AppleWebKit/537.36 (KHTML, like Gecko) Chrome/136.0.0.0 Safari/537.36" version="27.0.5">
  <diagram name="Page-1" id="CxVJC-g1ji-5MSDdJr-w">
    <mxGraphModel dx="1158" dy="775" grid="1" gridSize="10" guides="1" tooltips="1" connect="1" arrows="1" fold="1" page="1" pageScale="1" pageWidth="850" pageHeight="1100" math="0" shadow="0">
      <root>
        <mxCell id="0" />
        <mxCell id="1" parent="0" />
        <mxCell id="qRACISqBoRyZHmKc5G3n-10" style="edgeStyle=orthogonalEdgeStyle;rounded=0;orthogonalLoop=1;jettySize=auto;html=1;" parent="1" source="qRACISqBoRyZHmKc5G3n-1" target="qRACISqBoRyZHmKc5G3n-9" edge="1">
          <mxGeometry relative="1" as="geometry" />
        </mxCell>
        <mxCell id="qRACISqBoRyZHmKc5G3n-1" value="Start" style="html=1;dashed=0;whiteSpace=wrap;shape=mxgraph.dfd.start" parent="1" vertex="1">
          <mxGeometry x="390" y="80" width="80" height="30" as="geometry" />
        </mxCell>
        <mxCell id="qRACISqBoRyZHmKc5G3n-2" value="Fetch groups with user role and event creation permission" style="html=1;dashed=0;whiteSpace=wrap;" parent="1" vertex="1">
          <mxGeometry x="360" y="207.5" width="140" height="50" as="geometry" />
        </mxCell>
        <mxCell id="qRACISqBoRyZHmKc5G3n-5" style="edgeStyle=orthogonalEdgeStyle;rounded=0;orthogonalLoop=1;jettySize=auto;html=1;" parent="1" source="qRACISqBoRyZHmKc5G3n-4" target="qRACISqBoRyZHmKc5G3n-2" edge="1">
          <mxGeometry relative="1" as="geometry" />
        </mxCell>
        <mxCell id="qRACISqBoRyZHmKc5G3n-4" value="&lt;div&gt;&lt;br&gt;&lt;/div&gt;Teams, Clubs, Organizers" style="strokeWidth=2;html=1;shape=mxgraph.flowchart.database;whiteSpace=wrap;" parent="1" vertex="1">
          <mxGeometry x="580" y="190" width="85" height="85" as="geometry" />
        </mxCell>
        <mxCell id="qRACISqBoRyZHmKc5G3n-6" style="edgeStyle=orthogonalEdgeStyle;rounded=0;orthogonalLoop=1;jettySize=auto;html=1;exitX=1;exitY=0.25;exitDx=0;exitDy=0;entryX=0.005;entryY=0.353;entryDx=0;entryDy=0;entryPerimeter=0;" parent="1" source="qRACISqBoRyZHmKc5G3n-2" target="qRACISqBoRyZHmKc5G3n-4" edge="1">
          <mxGeometry relative="1" as="geometry" />
        </mxCell>
        <mxCell id="qRACISqBoRyZHmKc5G3n-11" style="edgeStyle=orthogonalEdgeStyle;rounded=0;orthogonalLoop=1;jettySize=auto;html=1;entryX=0.5;entryY=0;entryDx=0;entryDy=0;" parent="1" source="qRACISqBoRyZHmKc5G3n-9" target="qRACISqBoRyZHmKc5G3n-2" edge="1">
          <mxGeometry relative="1" as="geometry" />
        </mxCell>
        <mxCell id="qRACISqBoRyZHmKc5G3n-66" value="" style="edgeStyle=orthogonalEdgeStyle;rounded=0;orthogonalLoop=1;jettySize=auto;html=1;" parent="1" source="qRACISqBoRyZHmKc5G3n-9" target="qRACISqBoRyZHmKc5G3n-1" edge="1">
          <mxGeometry relative="1" as="geometry" />
        </mxCell>
        <mxCell id="qRACISqBoRyZHmKc5G3n-9" value="user.id" style="shape=parallelogram;html=1;strokeWidth=2;perimeter=parallelogramPerimeter;whiteSpace=wrap;rounded=1;arcSize=12;size=0.23;" parent="1" vertex="1">
          <mxGeometry x="380" y="140" width="100" height="37" as="geometry" />
        </mxCell>
        <mxCell id="qRACISqBoRyZHmKc5G3n-13" value="&lt;div&gt;&lt;br&gt;&lt;/div&gt;&lt;div&gt;Select group&lt;/div&gt;" style="html=1;strokeWidth=2;shape=manualInput;whiteSpace=wrap;rounded=1;size=26;arcSize=11;" parent="1" vertex="1">
          <mxGeometry x="380" y="280" width="100" height="60" as="geometry" />
        </mxCell>
        <mxCell id="qRACISqBoRyZHmKc5G3n-14" style="edgeStyle=orthogonalEdgeStyle;rounded=0;orthogonalLoop=1;jettySize=auto;html=1;entryX=0.492;entryY=0.221;entryDx=0;entryDy=0;entryPerimeter=0;" parent="1" source="qRACISqBoRyZHmKc5G3n-2" target="qRACISqBoRyZHmKc5G3n-13" edge="1">
          <mxGeometry relative="1" as="geometry" />
        </mxCell>
        <mxCell id="qRACISqBoRyZHmKc5G3n-24" style="edgeStyle=orthogonalEdgeStyle;rounded=0;orthogonalLoop=1;jettySize=auto;html=1;exitX=1;exitY=0.5;exitDx=0;exitDy=0;exitPerimeter=0;" parent="1" source="qRACISqBoRyZHmKc5G3n-21" edge="1">
          <mxGeometry relative="1" as="geometry">
            <mxPoint x="375" y="440" as="targetPoint" />
          </mxGeometry>
        </mxCell>
        <mxCell id="qRACISqBoRyZHmKc5G3n-25" value="No" style="edgeLabel;html=1;align=center;verticalAlign=middle;resizable=0;points=[];" parent="qRACISqBoRyZHmKc5G3n-24" vertex="1" connectable="0">
          <mxGeometry x="-0.1425" y="1" relative="1" as="geometry">
            <mxPoint as="offset" />
          </mxGeometry>
        </mxCell>
        <mxCell id="qRACISqBoRyZHmKc5G3n-35" value="Yes" style="edgeStyle=orthogonalEdgeStyle;rounded=0;orthogonalLoop=1;jettySize=auto;html=1;entryX=0.5;entryY=0;entryDx=0;entryDy=0;" parent="1" source="qRACISqBoRyZHmKc5G3n-21" target="qRACISqBoRyZHmKc5G3n-32" edge="1">
          <mxGeometry relative="1" as="geometry" />
        </mxCell>
        <mxCell id="qRACISqBoRyZHmKc5G3n-21" value="Is group team?" style="strokeWidth=2;html=1;shape=mxgraph.flowchart.decision;whiteSpace=wrap;" parent="1" vertex="1">
          <mxGeometry x="225" y="390" width="100" height="100" as="geometry" />
        </mxCell>
        <mxCell id="qRACISqBoRyZHmKc5G3n-36" style="edgeStyle=orthogonalEdgeStyle;rounded=0;orthogonalLoop=1;jettySize=auto;html=1;" parent="1" source="qRACISqBoRyZHmKc5G3n-26" target="qRACISqBoRyZHmKc5G3n-33" edge="1">
          <mxGeometry relative="1" as="geometry" />
        </mxCell>
        <mxCell id="qRACISqBoRyZHmKc5G3n-45" value="Yes" style="edgeLabel;html=1;align=center;verticalAlign=middle;resizable=0;points=[];" parent="qRACISqBoRyZHmKc5G3n-36" vertex="1" connectable="0">
          <mxGeometry x="-0.2312" y="-1" relative="1" as="geometry">
            <mxPoint as="offset" />
          </mxGeometry>
        </mxCell>
        <mxCell id="qRACISqBoRyZHmKc5G3n-72" style="edgeStyle=orthogonalEdgeStyle;rounded=0;orthogonalLoop=1;jettySize=auto;html=1;" parent="1" source="qRACISqBoRyZHmKc5G3n-26" target="qRACISqBoRyZHmKc5G3n-34" edge="1">
          <mxGeometry relative="1" as="geometry" />
        </mxCell>
        <mxCell id="qRACISqBoRyZHmKc5G3n-73" value="No" style="edgeLabel;html=1;align=center;verticalAlign=middle;resizable=0;points=[];" parent="qRACISqBoRyZHmKc5G3n-72" vertex="1" connectable="0">
          <mxGeometry x="-0.4336" relative="1" as="geometry">
            <mxPoint as="offset" />
          </mxGeometry>
        </mxCell>
        <mxCell id="qRACISqBoRyZHmKc5G3n-26" value="Is group club?" style="strokeWidth=2;html=1;shape=mxgraph.flowchart.decision;whiteSpace=wrap;" parent="1" vertex="1">
          <mxGeometry x="375" y="390" width="100" height="100" as="geometry" />
        </mxCell>
        <mxCell id="qRACISqBoRyZHmKc5G3n-31" style="edgeStyle=orthogonalEdgeStyle;rounded=0;orthogonalLoop=1;jettySize=auto;html=1;entryX=0.5;entryY=0;entryDx=0;entryDy=0;entryPerimeter=0;" parent="1" source="qRACISqBoRyZHmKc5G3n-13" target="qRACISqBoRyZHmKc5G3n-21" edge="1">
          <mxGeometry relative="1" as="geometry">
            <Array as="points">
              <mxPoint x="430" y="360" />
              <mxPoint x="275" y="360" />
            </Array>
          </mxGeometry>
        </mxCell>
        <mxCell id="qRACISqBoRyZHmKc5G3n-32" value="Allow&lt;div&gt;practice, tryouts&lt;/div&gt;" style="html=1;dashed=0;whiteSpace=wrap;" parent="1" vertex="1">
          <mxGeometry x="218" y="530" width="115" height="50" as="geometry" />
        </mxCell>
        <mxCell id="qRACISqBoRyZHmKc5G3n-33" value="Allow&lt;div&gt;practice, tryouts, events&lt;/div&gt;" style="html=1;dashed=0;whiteSpace=wrap;" parent="1" vertex="1">
          <mxGeometry x="367.5" y="530" width="115" height="50" as="geometry" />
        </mxCell>
        <mxCell id="qRACISqBoRyZHmKc5G3n-34" value="Allow&lt;div&gt;events&lt;/div&gt;" style="html=1;dashed=0;whiteSpace=wrap;" parent="1" vertex="1">
          <mxGeometry x="518" y="530" width="115" height="50" as="geometry" />
        </mxCell>
        <mxCell id="qRACISqBoRyZHmKc5G3n-54" style="edgeStyle=orthogonalEdgeStyle;rounded=0;orthogonalLoop=1;jettySize=auto;html=1;" parent="1" source="qRACISqBoRyZHmKc5G3n-41" target="qRACISqBoRyZHmKc5G3n-49" edge="1">
          <mxGeometry relative="1" as="geometry">
            <Array as="points">
              <mxPoint x="425" y="690" />
              <mxPoint x="275" y="690" />
            </Array>
          </mxGeometry>
        </mxCell>
        <mxCell id="qRACISqBoRyZHmKc5G3n-41" value="&lt;div&gt;&lt;br&gt;&lt;/div&gt;&lt;div&gt;Select event&lt;/div&gt;" style="html=1;strokeWidth=2;shape=manualInput;whiteSpace=wrap;rounded=1;size=26;arcSize=11;" parent="1" vertex="1">
          <mxGeometry x="375" y="610" width="100" height="60" as="geometry" />
        </mxCell>
        <mxCell id="qRACISqBoRyZHmKc5G3n-42" style="edgeStyle=orthogonalEdgeStyle;rounded=0;orthogonalLoop=1;jettySize=auto;html=1;entryX=0.494;entryY=0.277;entryDx=0;entryDy=0;entryPerimeter=0;" parent="1" source="qRACISqBoRyZHmKc5G3n-33" target="qRACISqBoRyZHmKc5G3n-41" edge="1">
          <mxGeometry relative="1" as="geometry" />
        </mxCell>
        <mxCell id="qRACISqBoRyZHmKc5G3n-43" style="edgeStyle=orthogonalEdgeStyle;rounded=0;orthogonalLoop=1;jettySize=auto;html=1;entryX=0.494;entryY=0.277;entryDx=0;entryDy=0;entryPerimeter=0;" parent="1" source="qRACISqBoRyZHmKc5G3n-34" target="qRACISqBoRyZHmKc5G3n-41" edge="1">
          <mxGeometry relative="1" as="geometry">
            <Array as="points">
              <mxPoint x="575.5" y="600" />
              <mxPoint x="424.5" y="600" />
            </Array>
          </mxGeometry>
        </mxCell>
        <mxCell id="qRACISqBoRyZHmKc5G3n-44" style="edgeStyle=orthogonalEdgeStyle;rounded=0;orthogonalLoop=1;jettySize=auto;html=1;entryX=0.5;entryY=0.277;entryDx=0;entryDy=0;entryPerimeter=0;" parent="1" source="qRACISqBoRyZHmKc5G3n-32" target="qRACISqBoRyZHmKc5G3n-41" edge="1">
          <mxGeometry relative="1" as="geometry">
            <Array as="points">
              <mxPoint x="275.5" y="600" />
              <mxPoint x="425.5" y="600" />
            </Array>
          </mxGeometry>
        </mxCell>
        <mxCell id="qRACISqBoRyZHmKc5G3n-47" style="edgeStyle=orthogonalEdgeStyle;rounded=0;orthogonalLoop=1;jettySize=auto;html=1;exitX=1;exitY=0.5;exitDx=0;exitDy=0;exitPerimeter=0;" parent="1" source="qRACISqBoRyZHmKc5G3n-49" edge="1">
          <mxGeometry relative="1" as="geometry">
            <mxPoint x="375" y="770" as="targetPoint" />
          </mxGeometry>
        </mxCell>
        <mxCell id="qRACISqBoRyZHmKc5G3n-48" value="No" style="edgeLabel;html=1;align=center;verticalAlign=middle;resizable=0;points=[];" parent="qRACISqBoRyZHmKc5G3n-47" vertex="1" connectable="0">
          <mxGeometry x="-0.1425" y="1" relative="1" as="geometry">
            <mxPoint as="offset" />
          </mxGeometry>
        </mxCell>
        <mxCell id="qRACISqBoRyZHmKc5G3n-59" style="edgeStyle=orthogonalEdgeStyle;rounded=0;orthogonalLoop=1;jettySize=auto;html=1;entryX=0.5;entryY=0;entryDx=0;entryDy=0;" parent="1" source="qRACISqBoRyZHmKc5G3n-49" target="qRACISqBoRyZHmKc5G3n-56" edge="1">
          <mxGeometry relative="1" as="geometry" />
        </mxCell>
        <mxCell id="qRACISqBoRyZHmKc5G3n-49" value="Is event&amp;nbsp;&lt;div&gt;practice?&lt;/div&gt;" style="strokeWidth=2;html=1;shape=mxgraph.flowchart.decision;whiteSpace=wrap;" parent="1" vertex="1">
          <mxGeometry x="225" y="720" width="100" height="100" as="geometry" />
        </mxCell>
        <mxCell id="qRACISqBoRyZHmKc5G3n-60" style="edgeStyle=orthogonalEdgeStyle;rounded=0;orthogonalLoop=1;jettySize=auto;html=1;" parent="1" source="qRACISqBoRyZHmKc5G3n-50" target="qRACISqBoRyZHmKc5G3n-57" edge="1">
          <mxGeometry relative="1" as="geometry" />
        </mxCell>
        <mxCell id="qRACISqBoRyZHmKc5G3n-50" value="Is event&lt;div&gt;tryouts?&lt;/div&gt;" style="strokeWidth=2;html=1;shape=mxgraph.flowchart.decision;whiteSpace=wrap;" parent="1" vertex="1">
          <mxGeometry x="375" y="720" width="100" height="100" as="geometry" />
        </mxCell>
        <mxCell id="qRACISqBoRyZHmKc5G3n-52" style="edgeStyle=orthogonalEdgeStyle;rounded=0;orthogonalLoop=1;jettySize=auto;html=1;entryX=0.5;entryY=0;entryDx=0;entryDy=0;" parent="1" source="qRACISqBoRyZHmKc5G3n-50" target="qRACISqBoRyZHmKc5G3n-58" edge="1">
          <mxGeometry relative="1" as="geometry">
            <mxPoint x="525" y="770" as="targetPoint" />
          </mxGeometry>
        </mxCell>
        <mxCell id="qRACISqBoRyZHmKc5G3n-74" value="No" style="edgeLabel;html=1;align=center;verticalAlign=middle;resizable=0;points=[];" parent="qRACISqBoRyZHmKc5G3n-52" vertex="1" connectable="0">
          <mxGeometry x="-0.3165" y="-1" relative="1" as="geometry">
            <mxPoint as="offset" />
          </mxGeometry>
        </mxCell>
        <mxCell id="qRACISqBoRyZHmKc5G3n-56" value="Practice Module" style="html=1;dashed=0;whiteSpace=wrap;" parent="1" vertex="1">
          <mxGeometry x="218" y="860" width="115" height="50" as="geometry" />
        </mxCell>
        <mxCell id="qRACISqBoRyZHmKc5G3n-57" value="Tryouts Module" style="html=1;dashed=0;whiteSpace=wrap;" parent="1" vertex="1">
          <mxGeometry x="367.5" y="860" width="115" height="50" as="geometry" />
        </mxCell>
        <mxCell id="qRACISqBoRyZHmKc5G3n-58" value="Tournament Module" style="html=1;dashed=0;whiteSpace=wrap;" parent="1" vertex="1">
          <mxGeometry x="518" y="860" width="115" height="50" as="geometry" />
        </mxCell>
        <mxCell id="qRACISqBoRyZHmKc5G3n-67" value="End" style="html=1;dashed=0;whiteSpace=wrap;shape=mxgraph.dfd.start" parent="1" vertex="1">
          <mxGeometry x="385" y="960" width="80" height="30" as="geometry" />
        </mxCell>
        <mxCell id="qRACISqBoRyZHmKc5G3n-68" style="edgeStyle=orthogonalEdgeStyle;rounded=0;orthogonalLoop=1;jettySize=auto;html=1;entryX=0.5;entryY=0.5;entryDx=0;entryDy=-15;entryPerimeter=0;" parent="1" source="qRACISqBoRyZHmKc5G3n-56" target="qRACISqBoRyZHmKc5G3n-67" edge="1">
          <mxGeometry relative="1" as="geometry">
            <Array as="points">
              <mxPoint x="275" y="930" />
              <mxPoint x="425" y="930" />
            </Array>
          </mxGeometry>
        </mxCell>
        <mxCell id="qRACISqBoRyZHmKc5G3n-69" style="edgeStyle=orthogonalEdgeStyle;rounded=0;orthogonalLoop=1;jettySize=auto;html=1;entryX=0.5;entryY=0.5;entryDx=0;entryDy=-15;entryPerimeter=0;" parent="1" source="qRACISqBoRyZHmKc5G3n-57" target="qRACISqBoRyZHmKc5G3n-67" edge="1">
          <mxGeometry relative="1" as="geometry" />
        </mxCell>
        <mxCell id="qRACISqBoRyZHmKc5G3n-70" style="edgeStyle=orthogonalEdgeStyle;rounded=0;orthogonalLoop=1;jettySize=auto;html=1;entryX=0.5;entryY=0.5;entryDx=0;entryDy=-15;entryPerimeter=0;" parent="1" source="qRACISqBoRyZHmKc5G3n-58" target="qRACISqBoRyZHmKc5G3n-67" edge="1">
          <mxGeometry relative="1" as="geometry">
            <Array as="points">
              <mxPoint x="575" y="930" />
              <mxPoint x="425" y="930" />
            </Array>
          </mxGeometry>
        </mxCell>
      </root>
    </mxGraphModel>
  </diagram>
</mxfile>
